<svg width="386" height="331" viewBox="0 0 386 331" fill="none" xmlns="http://www.w3.org/2000/svg">
<path fill-rule="evenodd" clip-rule="evenodd" d="M96.5404 316.256C98.0333 315.606 98.9993 314.176 98.6979 313.061C96.3557 304.396 93.5439 296.09 90.7871 287.947C88.8106 282.109 86.8623 276.354 85.1357 270.61C80.9556 256.704 77.9111 242.42 78.3111 225.823C79.0272 196.114 87.5838 164.427 108.366 134.236C119.085 118.663 135.041 102.428 153.134 90.3006C171.207 78.187 191.208 70.2968 210.29 70.9864C219.968 71.3362 229.143 73.6842 237.298 77.5724C226.888 81.6745 216.475 87.0641 206.179 93.9914C181.787 110.401 177.326 132.417 184.381 148.712C191.408 164.942 210.209 176.488 234.068 171.9C246.901 169.432 257.418 163.318 264.794 155.148C272.114 147.04 276.124 137.153 276.533 127.213C277.191 111.216 270.21 96.3475 258.621 85.3278C255.751 82.5993 252.589 80.0972 249.176 77.8666C277.802 69.1132 306.368 69.7818 332.369 74.4614C333.695 74.7 335.377 73.8655 336.126 72.5973C336.875 71.3291 336.407 70.1075 335.081 69.8689C307.367 64.8807 276 64.2356 244.35 74.9866C234.967 69.8907 224.036 66.7421 212.273 66.317C191.378 65.5619 169.738 74.2348 150.686 87.0047C131.654 99.7613 115 116.73 103.805 132.994C82.2598 164.294 73.5272 196.936 72.7968 227.243C72.3847 244.341 75.5261 258.983 79.7523 273.042C81.5523 279.03 83.5208 284.836 85.4992 290.672C88.2153 298.683 90.9497 306.749 93.2915 315.413C93.5929 316.528 95.0475 316.905 96.5404 316.256ZM242.225 80.1802C246.535 82.6992 250.492 85.6699 254.007 89.0122C265.111 99.5702 271.633 113.68 271.02 128.571C270.646 137.668 266.992 146.329 260.818 153.169C254.699 159.946 245.892 165.18 234.62 167.347C213.669 171.377 196.258 161.229 189.648 145.961C183.066 130.758 187.543 111.471 208.638 97.279C219.71 89.8307 230.956 84.2412 242.225 80.1802Z" fill="#E38895"/>
<path fill-rule="evenodd" clip-rule="evenodd" d="M82.7249 309.756C81.4514 310.773 81.0962 312.242 81.9316 313.035C82.0188 313.118 82.1432 313.237 82.3004 313.387C83.5019 314.539 86.6232 317.529 89.7586 320.204C91.5229 321.71 93.3465 323.163 94.8658 324.137C95.6058 324.612 96.3843 325.046 97.1193 325.29C97.4656 325.405 97.9998 325.548 98.6567 325.524C99.3651 325.497 100.695 325.226 101.783 324.087C103.331 322.466 103.981 320.576 104.323 319.046C104.68 317.45 104.8 315.751 104.899 314.284L104.907 314.165C105.008 312.664 105.09 311.447 105.304 310.48C105.389 310.096 105.477 309.844 105.543 309.695C106.679 308.823 107.169 307.533 106.637 306.659C106.049 305.693 104.433 305.604 103.028 306.459C101.835 307.186 101.117 308.127 100.692 308.901C100.275 309.663 100.038 310.445 99.8845 311.138C99.6001 312.423 99.5006 313.916 99.4103 315.272C99.4041 315.364 99.3981 315.455 99.392 315.545C99.2899 317.061 99.1819 318.46 98.9058 319.694C98.884 319.791 98.8617 319.885 98.839 319.975C97.5395 319.121 95.9188 317.834 94.2512 316.411C91.1914 313.801 88.1424 310.88 86.9275 309.716C86.7653 309.561 86.6359 309.437 86.5434 309.349C85.708 308.556 83.9985 308.738 82.7249 309.756ZM100.517 320.874C100.517 320.873 100.511 320.872 100.501 320.87C100.512 320.873 100.517 320.874 100.517 320.874Z" fill="#E38895"/>
</svg>
