<svg width="1920" height="1636" viewBox="0 0 1920 1636" fill="none" xmlns="http://www.w3.org/2000/svg">
<path fill-rule="evenodd" clip-rule="evenodd" d="M1920 853.421C1920 741.348 1895.17 630.373 1846.92 526.831C1798.68 423.289 1727.97 329.209 1638.82 249.961C1549.68 170.714 1443.85 107.851 1327.38 64.9628C1210.9 22.0744 1086.07 -4.89886e-06 960 0C833.931 4.89886e-06 709.096 22.0744 592.624 64.9628C476.151 107.851 370.322 170.714 281.177 249.961C192.033 329.209 121.32 423.289 73.0756 526.831C24.8311 630.373 -1.10213e-05 741.348 0 853.421V1636H0.781121C5.33638 1535.68 29.7762 1436.76 73.0756 1343.83C121.32 1240.29 192.033 1146.21 281.177 1066.96C370.322 987.714 476.151 924.851 592.624 881.963C709.096 839.074 833.931 817 960 817C1086.07 817 1210.9 839.074 1327.38 881.963C1443.85 924.851 1549.68 987.714 1638.82 1066.96C1727.97 1146.21 1798.68 1240.29 1846.92 1343.83C1890.22 1436.76 1914.66 1535.68 1919.22 1636H1920V853.421Z" fill="white"/>
</svg>
