<svg width="362" height="21" viewBox="0 0 362 21" fill="none" xmlns="http://www.w3.org/2000/svg">
<path fill-rule="evenodd" clip-rule="evenodd" d="M348.136 9.65243C345.928 9.71925 337.375 10.3168 329.024 10.8841C310.202 12.2692 306.796 12.2961 301.975 11.0696C295.583 9.42188 290.579 9.38102 277.661 10.8259C265.041 12.2917 253.879 12.9722 251.714 12.4206C250.927 12.2321 250.382 11.4392 250.441 10.5999C250.552 9.00973 247.522 6.53293 245.33 6.37889C243.636 6.25986 225.225 8.9168 213.363 11.0129C203.122 12.8235 191.228 13.9409 188.765 13.3683C187.881 13.1286 186.946 12.1751 186.719 11.1382C185.828 8.14582 183.411 6.91066 177.433 6.49055C166.572 5.72736 150.661 7.00634 126.173 10.6567C115.141 12.3229 111.006 12.7426 111.645 12.2104C112.074 11.7966 113.282 10.2835 114.185 8.83768C116.311 5.65785 115.195 3.00487 111.294 1.53217C98.6042 -3.13264 37.6488 3.63701 10.0759 12.7081C3.20443 15.0218 0.579966 16.7461 0.605424 19.2337L0.686754 20.9262L1.40875 19.2014C1.8756 18.2576 2.75963 17.0768 3.49125 16.64C8.9674 12.8077 55.123 4.33227 82.3083 2.20314C94.492 1.23932 106.695 1.43095 109.317 2.59178C111.746 3.65025 110.85 7.84872 107.734 10.8702C104.736 13.6336 104.829 15.1495 108.018 15.3735C109.014 15.4435 119.124 14.0676 130.461 12.3341C153.442 8.75539 163.926 7.7609 173.715 8.0937C180.307 8.33496 180.503 8.39314 181.419 9.61162C181.871 10.3092 182.288 11.4926 182.238 12.1994C182.189 12.9061 183.017 13.9409 184.079 14.5038C188.327 16.7555 198.378 16.2188 216.24 12.8131C232.073 9.79745 242.394 8.25891 244.066 8.68714C245.053 8.88967 245.499 9.67558 245.409 10.9566C245.071 15.7713 254.431 16.5178 277.281 13.3738C292.139 11.3994 293.547 11.3207 298.962 12.6334C305.264 14.1417 312.964 14.2833 323.865 13.0517C340.726 11.0848 350.499 10.218 355.808 10.1916L361.117 10.1651L356.633 9.85005C354.142 9.67501 350.343 9.58561 348.136 9.65243Z" fill="#263C93"/>
</svg>
