<svg width="10" height="85" viewBox="0 0 10 85" fill="none" xmlns="http://www.w3.org/2000/svg">
<path fill-rule="evenodd" clip-rule="evenodd" d="M6.36284 -1.62085e-08C6.57666 -7.25678e-09 6.75 0.274551 6.75 0.613227L6.75 82.9037C6.75 83.2424 6.57666 83.5169 6.36283 83.5169C6.14901 83.5169 5.97567 83.2424 5.97567 82.9037L5.97567 0.613227C5.97567 0.274551 6.14901 -2.51602e-08 6.36284 -1.62085e-08Z" fill="#282828"/>
<path fill-rule="evenodd" clip-rule="evenodd" d="M9.70664 63.2294C9.91409 63.3115 10.0402 63.6445 9.98835 63.973C9.86585 64.7492 9.74235 65.5236 9.61901 66.2969C8.94838 70.5022 8.28266 74.6766 7.80901 78.9277C7.78709 79.1245 7.76464 79.392 7.7372 79.719C7.71153 80.0249 7.6815 80.3829 7.64344 80.7835C7.56854 81.5722 7.46633 82.4737 7.31687 83.2165C7.24239 83.5866 7.15056 83.9465 7.03352 84.2411C6.92082 84.5248 6.75159 84.8316 6.50141 84.951C6.22723 85.0818 5.96685 84.9394 5.75323 84.683C5.54743 84.4359 5.35099 84.0478 5.15541 83.5424C4.37622 81.5288 3.79846 79.2853 3.27453 77.0459C3.12773 76.4184 2.98555 75.7932 2.84446 75.1728C2.47772 73.5602 2.1184 71.9802 1.70477 70.4784C1.68483 70.406 1.64131 70.2429 1.58054 70.0152C1.41356 69.3894 1.11625 68.2752 0.819377 67.211C0.618834 66.4921 0.425816 65.823 0.28446 65.3814C0.251761 65.2792 0.224059 65.1964 0.201391 65.1315C0.0813731 65.0274 -1.02126e-06 64.8254 -1.01155e-06 64.5934C-1.00985e-06 64.5528 0.000235507 64.4233 0.0406951 64.2859C0.0637388 64.2076 0.111516 64.0874 0.203868 64.0033C0.302844 63.913 0.405531 63.9071 0.483612 63.9329C0.604648 63.9729 0.679627 64.0912 0.697085 64.1188L0.698139 64.1204C0.727596 64.1668 0.751067 64.215 0.767475 64.251C0.829802 64.3877 0.902698 64.6006 0.9751 64.8268C1.12655 65.2999 1.3267 65.995 1.52765 66.7154C1.82832 67.7932 2.14751 68.9892 2.31081 69.6011C2.3637 69.7993 2.40024 69.9362 2.41451 69.988C2.83905 71.5294 3.21155 73.1674 3.58141 74.7938C3.72064 75.406 3.85949 76.0166 4.00061 76.6197C4.52106 78.8442 5.07768 80.9945 5.81561 82.9015C5.99022 83.3527 6.12678 83.5925 6.22099 83.7056C6.2519 83.7427 6.2726 83.7601 6.28479 83.768C6.29965 83.7502 6.33248 83.7028 6.37812 83.5879C6.44578 83.4176 6.514 83.1676 6.5791 82.844C6.7088 82.1995 6.80386 81.3789 6.87773 80.6011C6.91014 80.2599 6.93952 79.9128 6.96597 79.6003C6.9967 79.2373 7.02347 78.9209 7.04646 78.7146C7.52545 74.4156 8.19915 70.1915 8.86973 65.9871C8.99271 65.2161 9.11559 64.4457 9.23714 63.6756C9.289 63.347 9.4992 63.1473 9.70664 63.2294ZM6.29858 83.7739C6.29865 83.7743 6.29687 83.7743 6.29299 83.7726C6.29656 83.7726 6.2985 83.7734 6.29858 83.7739ZM0.137829 64.965C0.137826 64.965 0.138067 64.9655 0.13856 64.9665C0.138078 64.9656 0.137833 64.965 0.137829 64.965Z" fill="#282828"/>
</svg>
