<svg width="9" height="56" viewBox="0 0 9 56" fill="none" xmlns="http://www.w3.org/2000/svg">
<path fill-rule="evenodd" clip-rule="evenodd" d="M5.72573 -1.45893e-08C5.9182 -6.53184e-09 6.07422 0.180881 6.07422 0.404008L6.07422 54.6189C6.07422 54.842 5.91819 55.0229 5.72573 55.0229C5.53326 55.0229 5.37724 54.842 5.37724 54.6189L5.37724 0.404008C5.37724 0.180881 5.53327 -2.26467e-08 5.72573 -1.45893e-08Z" fill="#282828"/>
<path fill-rule="evenodd" clip-rule="evenodd" d="M8.73595 41.6567C8.92267 41.7108 9.03619 41.9302 8.98951 42.1466C8.87925 42.6579 8.76809 43.1681 8.65707 43.6777C8.05343 46.4482 7.45422 49.1984 7.02789 51.9991C7.00815 52.1288 6.98795 52.305 6.96325 52.5204C6.94015 52.722 6.91311 52.9578 6.87886 53.2218C6.81143 53.7414 6.71943 54.3353 6.58491 54.8246C6.51787 55.0685 6.43521 55.3056 6.32986 55.4997C6.22842 55.6866 6.0761 55.8887 5.85091 55.9674C5.60412 56.0536 5.36975 55.9598 5.17748 55.7908C4.99224 55.628 4.81541 55.3723 4.63938 55.0394C3.93802 53.7127 3.41798 52.2347 2.94639 50.7593C2.81426 50.3459 2.68627 49.934 2.55928 49.5253C2.22918 48.4629 1.90575 47.4219 1.53344 46.4325C1.51549 46.3848 1.47633 46.2774 1.42163 46.1273C1.27132 45.7151 1.00371 44.981 0.736499 44.2799C0.55599 43.8063 0.382255 43.3654 0.255019 43.0745C0.225587 43.0072 0.200652 42.9526 0.180248 42.9099C0.0722208 42.8412 -0.00102429 42.7082 -0.00102428 42.5553C-0.00102428 42.5286 -0.00081161 42.4433 0.0356064 42.3527C0.0563478 42.3012 0.0993519 42.222 0.182478 42.1665C0.271566 42.1071 0.363996 42.1032 0.434277 42.1202C0.543221 42.1466 0.61071 42.2245 0.626424 42.2426L0.627373 42.2437C0.653888 42.2743 0.675014 42.306 0.689782 42.3298C0.745884 42.4198 0.811497 42.5601 0.876667 42.7091C1.01298 43.0208 1.19314 43.4787 1.37402 43.9533C1.64466 44.6634 1.93195 45.4514 2.07894 45.8545C2.12655 45.9851 2.15944 46.0753 2.17228 46.1094C2.55441 47.1249 2.8897 48.2041 3.22261 49.2756C3.34793 49.6789 3.47292 50.0812 3.59994 50.4785C4.06839 51.9441 4.56941 53.3608 5.23362 54.6171C5.39079 54.9144 5.51371 55.0723 5.5985 55.1469C5.62632 55.1713 5.64496 55.1828 5.65593 55.188C5.66931 55.1763 5.69886 55.1451 5.73994 55.0694C5.80084 54.9572 5.86224 54.7924 5.92084 54.5793C6.03759 54.1546 6.12314 53.614 6.18964 53.1016C6.21881 52.8768 6.24525 52.6481 6.26906 52.4422C6.29672 52.2031 6.32082 51.9946 6.34152 51.8587C6.77265 49.0264 7.37905 46.2435 7.98264 43.4736C8.09334 42.9656 8.20394 42.458 8.31335 41.9506C8.36003 41.7342 8.54923 41.6026 8.73595 41.6567ZM5.66834 55.1919C5.66841 55.1922 5.6668 55.1922 5.66331 55.191C5.66653 55.191 5.66827 55.1916 5.66834 55.1919ZM0.123036 42.8002C0.123033 42.8001 0.123251 42.8005 0.123694 42.8012C0.123259 42.8005 0.123039 42.8002 0.123036 42.8002Z" fill="#282828"/>
</svg>
