<svg width="226" height="246" viewBox="0 0 226 246" fill="none" xmlns="http://www.w3.org/2000/svg">
<path fill-rule="evenodd" clip-rule="evenodd" d="M164.479 97.3123C187.242 112.94 207.199 133.084 214.029 157.895C216.516 166.922 216.275 176.227 216.134 185.741C216.125 186.408 215.45 187.039 214.627 187.147C213.803 187.252 213.142 186.796 213.154 186.124C213.291 176.794 213.553 167.663 211.115 158.811C204.381 134.352 184.619 114.544 162.157 99.1687L161.779 99.4792C157.683 102.857 150.446 104.415 142.256 104.454C130.515 104.512 116.782 101.584 108.279 97.5082C104.458 95.6762 101.685 93.589 100.476 91.4657C99.5311 89.8107 99.4793 88.1077 100.408 86.4301C102.39 82.8559 107.387 81.0888 113.881 80.9103C127.462 80.5339 147.84 86.7151 155.377 91.38C157.73 92.8375 160.07 94.3398 162.38 95.8896C163.117 95.3091 163.836 94.7385 164.51 94.1616C166.425 92.5138 167.991 90.7839 168.599 88.3502C169.54 84.557 168.547 80.8033 166.628 77.2987C163.628 71.8317 158.35 66.9832 154.092 63.5526C130.374 44.4485 100.594 41.7225 72.8204 44.6685C44.7715 47.6476 18.7372 56.3887 2.84227 60.1051C2.02487 60.2976 1.28763 59.9225 1.19066 59.2717C1.09369 58.621 1.68035 57.9373 2.49884 57.7478C18.4962 54.0064 44.7061 45.2295 72.942 42.2336C101.453 39.2045 132.003 42.0479 156.352 61.6564C160.788 65.2296 166.259 70.2949 169.382 75.988C171.541 79.9303 172.576 84.1732 171.516 88.4421C170.562 92.2728 167.75 94.7038 164.479 97.3123ZM160.043 97.7414L159.856 97.8974C156.276 100.851 149.904 101.963 142.742 101.996C131.46 102.052 118.259 99.2464 110.085 95.3271C107.281 93.9849 105.08 92.5204 103.81 90.9836C102.765 89.7148 102.364 88.4241 103.089 87.1212C103.767 85.889 105.016 85.0343 106.624 84.4504C108.511 83.7623 110.851 83.4389 113.475 83.3652C126.524 83.0046 146.101 88.9506 153.343 93.4339C155.591 94.8278 157.828 96.2623 160.043 97.7414Z" fill="#E38895"/>
<path fill-rule="evenodd" clip-rule="evenodd" d="M212.75 190.204C213.329 189.879 213.981 189.267 214.674 188.603C216.326 187.023 217.973 185.038 218.791 184.122C219.319 183.533 220.258 183.335 220.892 183.672C221.526 184.013 221.613 184.764 221.085 185.352C220.082 186.474 217.882 189.117 215.884 190.842C214.812 191.767 213.751 192.436 212.906 192.691C211.467 193.129 210.267 192.598 209.684 190.875C208.995 188.836 208.906 184.605 206.163 182.058C205.665 181.597 205.794 180.816 206.447 180.323C207.104 179.825 208.039 179.798 208.538 180.262C211.151 182.691 211.732 186.443 212.306 188.9C212.416 189.367 212.621 189.894 212.75 190.204Z" fill="#E38895"/>
</svg>
