<svg width="136" height="386" viewBox="0 0 136 386" fill="none" xmlns="http://www.w3.org/2000/svg">
<path fill-rule="evenodd" clip-rule="evenodd" d="M56.847 1.74343C56.592 3.1268 56.9429 4.66406 57.6308 5.17699C77.5111 20.0003 96.2671 47.3295 109.399 81.0372C123.148 116.329 133.274 169.543 133.343 214.354C133.427 269.32 117.524 319.12 93.7486 345.278C82.5516 357.597 73.5727 362.577 60.9508 366.541C49.244 370.217 38.2334 368.911 26.8086 367.555C22.2982 367.02 17.7233 366.477 13.0155 366.23C12.2821 366.191 11.672 367.356 11.6529 368.831C11.6337 370.306 12.2128 371.533 12.9462 371.571C17.4649 371.808 21.9312 372.338 26.3835 372.866C37.9156 374.234 49.3533 375.591 61.3607 371.82C74.1908 367.791 83.4844 362.661 95.0238 349.965C119.581 322.946 136.087 271.423 136 214.337C135.929 168.204 125.561 113.859 111.49 77.7422C98.052 43.2473 78.8897 15.3299 58.5545 0.167367C57.8665 -0.345569 57.1021 0.360059 56.847 1.74343Z" fill="#E38895"/>
<path fill-rule="evenodd" clip-rule="evenodd" d="M26.3153 352.572C25.9991 351.241 25.2061 350.677 24.544 351.313C22.0544 353.704 19.3746 355.15 16.5901 356.653C15.5838 357.196 14.5638 357.746 13.5342 358.351C9.52645 360.706 5.65808 362.168 1.5271 362.667C1.40151 362.682 1.22588 362.718 1.04215 362.827C0.915159 362.903 0.467611 363.189 0.190411 364.138C-0.16828 365.367 0.0582237 366.531 0.210844 367.032C0.351274 367.493 0.528809 367.788 0.613605 367.922C0.942362 368.44 1.46758 368.917 1.86951 369.264C2.33045 369.662 2.86436 370.08 3.34202 370.45C3.43835 370.525 3.53181 370.597 3.62189 370.666C3.99304 370.953 4.30693 371.195 4.52971 371.381C9.27411 375.337 13.6049 380.255 18.0861 385.623C18.7164 386.379 19.5318 385.963 19.9073 384.696C20.2828 383.428 20.0762 381.788 19.4459 381.033C15.1604 375.899 10.9104 371.05 6.26306 367.052C8.96044 366.256 11.5975 365.056 14.2795 363.48C15.1808 362.95 16.1199 362.444 17.0789 361.927C19.9314 360.389 22.9593 358.756 25.6891 356.134C26.3511 355.499 26.6315 353.904 26.3153 352.572ZM1.67523 368.002C1.67539 368.002 1.67759 368.002 1.68165 368.001C1.67713 368.001 1.67506 368.002 1.67523 368.002Z" fill="#E38895"/>
</svg>
