<svg width="408" height="266" viewBox="0 0 408 266" fill="none" xmlns="http://www.w3.org/2000/svg">
<path fill-rule="evenodd" clip-rule="evenodd" d="M345.129 227.087C345.6 226.399 346.833 226.327 347.882 226.926C353.408 230.079 358.605 232.084 364.782 234.368C364.778 234.366 364.775 234.365 364.775 234.365C364.775 234.365 364.8 234.374 364.876 234.4L365.2 234.511C365.466 234.602 365.822 234.725 366.228 234.869C367.029 235.153 368.061 235.533 368.985 235.923C369.445 236.116 369.92 236.33 370.345 236.551C370.7 236.735 371.29 237.06 371.752 237.504C371.998 237.741 372.386 238.181 372.49 238.735C372.605 239.353 372.31 239.773 371.97 240.01C371.666 240.221 371.304 240.311 371.047 240.355C370.771 240.403 370.473 240.424 370.178 240.43C366.082 240.512 361.884 240.275 357.764 240.012C357.258 239.979 356.752 239.946 356.248 239.914C352.626 239.678 349.08 239.448 345.606 239.401C345.199 239.395 343.177 239.45 341.232 239.529C340.274 239.568 339.375 239.611 338.743 239.654C338.524 239.668 338.355 239.682 338.236 239.693C337.723 239.859 337.045 239.807 336.391 239.503C336.204 239.416 335.546 239.092 335.156 238.444C334.699 237.685 334.989 237.153 335.167 236.946C335.336 236.748 335.545 236.649 335.62 236.616C335.719 236.571 335.808 236.543 335.863 236.528C336.049 236.475 336.245 236.45 336.335 236.439C336.571 236.41 336.888 236.384 337.225 236.362C337.916 236.315 338.863 236.27 339.832 236.23C341.742 236.152 343.901 236.091 344.464 236.099C348.075 236.148 351.76 236.388 355.37 236.622C355.873 236.655 356.375 236.688 356.874 236.72C359.079 236.861 361.254 236.99 363.394 237.068C357.447 234.863 351.994 232.737 346.176 229.416C345.126 228.818 344.658 227.775 345.129 227.087ZM338.062 239.713C338.062 239.713 338.065 239.712 338.073 239.711C338.066 239.712 338.062 239.713 338.062 239.713Z" fill="#263C93" fill-opacity="0.71"/>
<path fill-rule="evenodd" clip-rule="evenodd" d="M241.317 96.6934C244.236 101.187 245.016 106.657 243.708 110.467C239.736 122.03 225.455 129.189 214.06 134.278C205.01 138.32 196.864 141.311 187.177 143.322C187.024 150.311 188.452 157.291 191.592 164.027C196.982 175.591 207.48 186.585 224.092 195.841C258.072 214.774 294.48 221.714 330.92 228.661C337.205 229.859 343.492 231.057 349.766 232.317C350.916 232.548 351.883 233.45 351.928 234.333C351.972 235.215 351.076 235.743 349.926 235.512C343.767 234.275 337.556 233.093 331.312 231.905C294.912 224.978 257.394 217.838 222.443 198.364C204.874 188.574 193.54 176.788 187.72 164.301C184.626 157.663 183.108 150.868 183.006 144.109C180.758 144.494 178.418 144.83 175.959 145.12C149.34 148.258 122.167 140.077 99.8669 120.166C77.2001 99.9269 60.5003 75.4054 46.4927 52.5398C40.582 42.8912 35.9117 34.0156 33.7713 24.0892C33.5761 23.1842 34.3368 22.5419 35.4704 22.6545C36.6039 22.7671 37.681 23.592 37.8762 24.497C39.9035 33.8989 44.3279 42.3643 50.1561 51.8782C64.1299 74.6888 80.5384 98.7108 102.607 118.416C123.552 137.117 148.942 144.828 174.223 141.848C177.356 141.478 180.29 141.031 183.086 140.504C183.363 135.805 184.314 131.14 185.885 126.575C188.323 119.491 192.635 110.532 199.03 103.118C205.394 95.7391 214.002 89.6805 225.189 88.8186C228.795 88.5407 232.088 89.258 234.93 90.7774C237.733 92.2764 239.839 94.4185 241.317 96.6934ZM187.407 139.6C187.794 135.794 188.643 131.998 189.934 128.249C192.314 121.333 196.515 112.628 202.686 105.473C208.888 98.2827 216.901 92.8666 226.751 92.1076C229.537 91.893 231.701 92.4568 233.377 93.3531C235.091 94.2698 236.562 95.6781 237.713 97.4495C240.051 101.049 240.737 105.654 239.659 108.794C236.036 119.343 222.806 126.138 211.288 131.282C203.124 134.928 195.791 137.67 187.407 139.6Z" fill="#263C93" fill-opacity="0.71"/>
</svg>
