<svg width="46" height="87" viewBox="0 0 46 87" fill="none" xmlns="http://www.w3.org/2000/svg">
<path d="M21 0C21 11.753 18.4769 22.2941 14.4954 29.8243C10.4662 37.4446 5.24408 41.5 0 41.5V43.5V45.5C5.24408 45.5 10.4662 49.5554 14.4954 57.1757C18.4769 64.7059 21 75.247 21 87H23H25C25 75.247 27.5231 64.7059 31.5046 57.1757C35.5338 49.5554 40.7559 45.5 46 45.5V43.5V41.5C40.7559 41.5 35.5338 37.4446 31.5046 29.8243C27.5231 22.2941 25 11.753 25 0H23H21Z" fill="#4F5D60" stroke="#F6F6F6" stroke-width="4"/>
</svg>
