<svg width="320" height="31" viewBox="0 0 320 31" fill="none" xmlns="http://www.w3.org/2000/svg">
<path fill-rule="evenodd" clip-rule="evenodd" d="M181.933 1.32759C178.54 2.04837 170.645 4.13065 164.382 5.93262C149.505 10.2974 141.48 11.9792 134.237 12.2595C127.451 12.5398 124.711 11.8991 121.905 9.37637C120.861 8.41532 119.034 7.17396 117.86 6.57331C116.098 5.6523 115.315 5.53217 112.966 5.69234C106.637 6.13282 94.5663 10.4976 75.3181 19.3473C63.182 24.9134 57.3749 26.9155 53.982 26.7153C52.0245 26.5952 51.7635 26.435 51.5678 25.3138C51.4373 24.633 51.8288 22.751 52.3508 21.1092C53.9167 16.344 54.243 13.1004 53.3947 10.6578C51.5026 5.05165 45.1082 4.9315 30.4274 10.2173C17.7693 14.7823 4.45871 22.0703 1.3268 26.1547C0.34808 27.356 -0.108656 28.6374 0.0218397 29.5584L0.217586 31L1.13105 29.198C2.958 25.3538 17.1168 18.4663 33.1679 13.621C42.9551 10.6578 46.087 10.0171 46.9352 10.8179C47.8487 11.6989 47.6529 15.7433 46.4132 20.8289C45.3692 25.2737 45.3692 25.5541 46.4784 27.356C48.0444 29.8387 49.8713 30.5595 54.243 30.3193C60.833 29.9989 68.0756 27.356 89.0854 17.7055C104.941 10.4175 109.573 8.81577 112.966 9.33634C114.075 9.49651 115.707 10.4976 117.729 12.1794C121.253 15.2228 122.884 15.8635 128.691 16.344C137.695 17.1449 145.982 15.7433 163.664 10.5777C186.958 3.7302 190.677 3.00942 192.634 4.85143C193.156 5.372 194.07 6.93371 194.657 8.33524C196.875 13.621 201.443 17.7055 207.511 19.6676C209.99 20.4685 211.165 20.5886 217.82 20.5486C226.367 20.5085 230.739 19.8678 248.486 15.7834C263.885 12.2195 286.2 7.65449 304.078 4.3709C312.951 2.76915 320.129 1.36761 319.998 1.28753C319.672 1.08731 292.398 4.25077 281.828 5.77243C267.735 7.77462 258.143 9.4965 241.831 12.9002C222.387 16.9847 214.362 17.6654 208.816 15.5832C206.206 14.5821 204.509 12.9403 202.748 9.57659C200.79 5.89256 197.789 2.52889 195.179 1.1674C192.243 -0.43435 189.763 -0.394296 181.933 1.32759Z" fill="#282828"/>
</svg>
