<svg width="125" height="118" viewBox="0 0 125 118" fill="none" xmlns="http://www.w3.org/2000/svg">
<path fill-rule="evenodd" clip-rule="evenodd" d="M39.8966 44.0885C44.9444 36.6964 48.9552 28.5362 52.782 20.5991C53.6 18.8875 52.8785 16.809 51.1318 16.0903C49.426 15.2434 47.3668 15.9794 46.591 17.5634C42.8891 25.2586 39.0298 33.1841 34.1961 40.2222C33.1575 41.7193 33.5763 43.8404 35.1441 44.9248C36.7106 46.0087 38.8566 45.5851 39.8966 44.0885Z" fill="#E38895"/>
<path fill-rule="evenodd" clip-rule="evenodd" d="M57.8189 66.5061C75.9078 57.9027 92.7757 47.0554 111.149 38.8291C112.847 38.1161 113.592 36.0974 112.783 34.4145C111.973 32.7311 109.944 31.9195 108.204 32.7602C89.7903 40.9731 72.8832 51.8074 54.7538 60.3974C53.0453 61.2484 52.3524 63.2839 53.1964 64.9785C54.0813 66.545 56.1105 67.3571 57.8189 66.5061Z" fill="#E38895"/>
<path fill-rule="evenodd" clip-rule="evenodd" d="M89.5507 92.871C81.5573 90.6542 73.5643 88.4366 65.5696 86.2194C63.7677 85.6239 61.87 86.6964 61.3671 88.5121C60.8656 90.3282 61.9779 92.1107 63.7812 92.7066C71.7876 94.9277 79.7924 97.1492 87.7976 99.3699C89.6417 99.8378 91.5301 98.7628 92.0224 96.9436C92.4727 95.252 91.3935 93.3384 89.5507 92.871Z" fill="#E38895"/>
</svg>
