<svg width="67" height="64" viewBox="0 0 67 64" fill="none" xmlns="http://www.w3.org/2000/svg">
<path fill-rule="evenodd" clip-rule="evenodd" d="M22.7917 57.4608C22.5397 56.4564 23.212 55.4209 24.2932 55.1479C33.2362 52.8898 42.2465 51.0317 51.223 49.1805C52.3656 48.9449 53.5075 48.7094 54.6487 48.4732C55.7406 48.2472 56.7889 48.8877 56.9903 49.9037C57.1917 50.9197 56.4699 51.9266 55.3781 52.1525C54.234 52.3893 53.091 52.625 51.9493 52.8605C42.9619 54.7141 34.0496 56.5521 25.2058 58.7851C24.1245 59.0581 23.0437 58.4652 22.7917 57.4608Z" fill="#263C93"/>
<path fill-rule="evenodd" clip-rule="evenodd" d="M59.1216 22.7968C59.6549 23.7904 59.3086 25.0279 58.3481 25.5607C56.5356 26.5662 54.7236 27.5687 52.9131 28.5704C42.3317 34.4247 31.7998 40.2515 21.499 46.4934C20.5591 47.0629 19.3361 46.7358 18.7673 45.7627C18.1985 44.7897 18.4994 43.5392 19.4393 42.9696C29.8111 36.6847 40.4184 30.8163 50.9971 24.9637C52.8049 23.9635 54.612 22.9637 56.4169 21.9624C57.3773 21.4296 58.5883 21.8032 59.1216 22.7968Z" fill="#263C93"/>
<path fill-rule="evenodd" clip-rule="evenodd" d="M29.7499 6.90364C30.6137 7.54228 30.8013 8.76252 30.1689 9.62913L9.5455 37.8929C8.91316 38.7595 7.70032 38.9443 6.83655 38.3057C5.97278 37.667 5.78517 36.4468 6.41751 35.5802L27.0409 7.31642C27.6733 6.44982 28.8861 6.26501 29.7499 6.90364Z" fill="#263C93"/>
</svg>
