<svg width="65" height="102" viewBox="0 0 65 102" fill="none" xmlns="http://www.w3.org/2000/svg">
<path d="M50.5 58C50.5 63.7934 49.1615 68.9399 47.0999 72.5683C45.005 76.2555 42.4185 78 40 78V80V82C42.4185 82 45.005 83.7445 47.0999 87.4317C49.1615 91.0601 50.5 96.2066 50.5 102H52.5H54.5C54.5 96.2066 55.8385 91.0601 57.9001 87.4317C59.995 83.7445 62.5815 82 65 82V80V78C62.5815 78 59.995 76.2555 57.9001 72.5683C55.8385 68.9399 54.5 63.7934 54.5 58H52.5H50.5Z" fill="#4F5D60" stroke="#F6F6F6" stroke-width="4"/>
<path d="M21 0C21 11.753 18.4769 22.2941 14.4954 29.8243C10.4662 37.4446 5.24408 41.5 0 41.5V43.5V45.5C5.24408 45.5 10.4662 49.5554 14.4954 57.1757C18.4769 64.7059 21 75.247 21 87H23H25C25 75.247 27.5231 64.7059 31.5046 57.1757C35.5338 49.5554 40.7559 45.5 46 45.5V43.5V41.5C40.7559 41.5 35.5338 37.4446 31.5046 29.8243C27.5231 22.2941 25 11.753 25 0H23H21Z" fill="#4F5D60" stroke="#F6F6F6" stroke-width="4"/>
</svg>
