<svg width="245" height="25" viewBox="0 0 245 25" fill="none" xmlns="http://www.w3.org/2000/svg">
<path fill-rule="evenodd" clip-rule="evenodd" d="M139.293 1.07063C136.695 1.65191 130.65 3.33117 125.855 4.78437C114.465 8.30434 108.32 9.66066 102.775 9.88671C97.5799 10.1128 95.4818 9.59607 93.3337 7.56159C92.5344 6.78655 91.1356 5.78545 90.2364 5.30105C88.8876 4.55831 88.2882 4.46142 86.4898 4.5906C81.6441 4.94582 72.4023 8.46581 57.6654 15.6026C48.3737 20.0914 43.9276 21.7061 41.3299 21.5446C39.8313 21.4477 39.6315 21.3186 39.4816 20.4143C39.3817 19.8654 39.6814 18.3476 40.0811 17.0235C41.28 13.1806 41.5298 10.5649 40.8804 8.59498C39.4316 4.07391 34.536 3.97702 23.296 8.23974C13.6046 11.9212 3.4137 17.7986 1.01583 21.0925C0.266499 22.0613 -0.0831901 23.0947 0.016721 23.8374L0.166589 25L0.865964 23.5468C2.26472 20.4466 13.1051 14.8922 25.3941 10.9847C32.8875 8.59497 35.2853 8.07827 35.9348 8.72414C36.6341 9.4346 36.4843 12.6962 35.5351 16.7975C34.7358 20.382 34.7358 20.6081 35.5851 22.0613C36.784 24.0635 38.1827 24.6448 41.5298 24.451C46.5753 24.1927 52.1204 22.0613 68.206 14.2786C80.3452 8.40121 83.8921 7.10949 86.4898 7.5293C87.339 7.65848 88.5879 8.4658 90.1365 9.82212C92.8341 12.2764 94.083 12.7931 98.529 13.1806C105.423 13.8265 111.767 12.6962 125.305 8.53039C143.139 3.00823 145.987 2.42695 147.485 3.91244C147.885 4.33226 148.584 5.5917 149.034 6.72197C150.733 10.9847 154.229 14.2786 158.875 15.861C160.774 16.5069 161.673 16.6037 166.768 16.5714C173.312 16.5392 176.66 16.0224 190.247 12.7285C202.037 9.85442 219.122 6.17298 232.81 3.52492C239.603 2.23319 245.099 1.10291 244.999 1.03833C244.749 0.876862 223.867 3.42804 215.775 4.65519C204.984 6.26986 197.641 7.65847 185.152 10.4034C170.265 13.6973 164.121 14.2463 159.874 12.5671C157.876 11.7597 156.577 10.4357 155.229 7.72306C153.73 4.75207 151.432 2.03943 149.434 0.941452C147.186 -0.350282 145.287 -0.317981 139.293 1.07063Z" fill="#282828"/>
</svg>
