<svg width="157" height="15" viewBox="0 0 157 15" fill="none" xmlns="http://www.w3.org/2000/svg">
<path fill-rule="evenodd" clip-rule="evenodd" d="M69.7408 3.51535C47.2158 5.96551 43.7341 6.35501 40.2511 6.73239C36.3177 7.15856 32.3827 7.56928 1.01802 10.9148C0.512603 10.9688 0.0591786 10.6027 0.00526759 10.0973C-0.0486435 9.59191 0.317374 9.13848 0.82279 9.08457C32.1863 5.73913 36.1207 5.32848 40.0533 4.90239C43.6026 4.51782 47.1506 4.12067 70.8604 1.54206C71.9676 1.42164 73.5897 1.22306 75.3534 1.00715C77.1459 0.787704 79.0846 0.55036 80.7775 0.359001C82.4224 0.173073 83.8421 0.0299052 84.5833 0.0043118C84.7616 -0.00184303 84.9517 -0.00352893 85.1067 0.013837L85.1114 0.0143574C85.1618 0.0198914 85.3502 0.0405518 85.5358 0.143064C85.6313 0.195835 85.9062 0.369222 85.9984 0.743462C86.0985 1.15026 85.9043 1.45124 85.8088 1.56704C85.7113 1.6854 85.6061 1.7547 85.5589 1.78419C85.5011 1.82025 85.4465 1.84717 85.405 1.86607C85.322 1.90393 85.2323 1.93638 85.1482 1.96412C84.9768 2.02067 84.7499 2.08327 84.4726 2.15259C79.1219 3.49027 73.6397 4.60284 68.165 5.71387C65.6778 6.21863 63.1921 6.72307 60.7211 7.24816C53.3354 8.81758 46.0432 10.5781 39.0726 13.0988C39.2258 13.0872 39.3808 13.0747 39.5385 13.062L39.5578 13.0604C39.9828 13.026 40.4271 12.99 40.8699 12.9713C49.6096 12.602 62.9681 11.3049 70.99 10.5205C77.5499 9.87895 84.1788 9.01962 90.8373 8.15646C102.177 6.68641 113.603 5.20522 124.921 4.76994C125.042 4.76527 125.137 4.76176 125.203 4.75988C125.236 4.75896 125.268 4.75821 125.297 4.75813C125.306 4.7581 125.318 4.75812 125.331 4.75839C125.339 4.75853 125.347 4.75876 125.355 4.75909C125.367 4.75954 125.387 4.7605 125.411 4.76279L125.412 4.76288C125.427 4.7643 125.488 4.76999 125.562 4.78941C125.592 4.79716 125.694 4.82437 125.809 4.89425C125.886 4.94146 126.278 5.20077 126.249 5.73022C126.225 6.17472 125.91 6.39747 125.865 6.42924L125.863 6.43071C125.775 6.4931 125.697 6.52517 125.67 6.53591C125.607 6.56108 125.554 6.57366 125.54 6.57706L125.54 6.57716C125.518 6.58245 125.499 6.58605 125.488 6.5881C125.451 6.59514 125.412 6.60022 125.392 6.60284C125.341 6.60933 125.269 6.61766 125.188 6.62693L125.184 6.62743C124.849 6.66592 124.227 6.73751 123.508 6.85532C123.316 6.88685 123.119 6.9214 122.92 6.95912C126.613 7.01156 130.333 6.94786 134.035 6.86469C137.519 6.78639 141.002 6.30861 144.536 5.82377C144.683 5.80357 144.83 5.78335 144.978 5.76315C148.644 5.26097 152.365 4.76926 156.085 4.76926C156.593 4.76926 157.005 5.1813 157.005 5.68959C157.005 6.19787 156.593 6.60992 156.085 6.60992C152.508 6.60992 148.906 7.08283 145.228 7.58677C145.069 7.60849 144.91 7.63027 144.752 7.65207C141.245 8.13327 137.668 8.62416 134.076 8.70488C129.779 8.80145 125.423 8.87271 121.102 8.76469C121.065 8.76377 121.022 8.76293 120.975 8.76197C120.664 8.7558 120.138 8.74536 119.713 8.68557C119.506 8.65644 119.139 8.5953 118.849 8.40678C118.689 8.30257 118.403 8.06033 118.35 7.63208C118.316 7.35717 118.394 7.13109 118.489 6.96639C109.402 7.60479 100.312 8.78436 91.2147 9.96491C84.5375 10.8314 77.8563 11.6984 71.1692 12.3524C63.1644 13.1352 49.7492 14.4384 40.9476 14.8103C40.5405 14.8275 40.1263 14.861 39.6895 14.8964L39.687 14.8966C39.2556 14.9316 38.8022 14.9682 38.3477 14.987C37.4399 15.0245 36.467 14.9944 35.5039 14.7148C35.3719 14.6764 34.9583 14.5382 34.7807 14.0837C34.5879 13.59 34.8462 13.1964 34.9353 13.0781C35.0476 12.9293 35.1838 12.8198 35.2773 12.7509C35.3815 12.6742 35.4947 12.6037 35.6028 12.5415C36.0234 12.2993 36.5739 12.0659 36.8696 11.9532C44.4411 9.06886 52.3792 7.13903 60.3385 5.4477C62.8459 4.91488 65.3513 4.40648 67.8484 3.89975C68.4798 3.77163 69.1106 3.64362 69.7408 3.51535ZM36.3493 14.2483C36.3494 14.2482 36.3505 14.2472 36.353 14.2452C36.3506 14.2474 36.3493 14.2484 36.3493 14.2483Z" fill="#E38895"/>
</svg>
