<svg width="256" height="8" viewBox="0 0 256 8" fill="none" xmlns="http://www.w3.org/2000/svg">
<path fill-rule="evenodd" clip-rule="evenodd" d="M145.547 0.342603C142.832 0.528612 136.516 1.06597 131.505 1.531C119.604 2.65739 113.184 3.09141 107.39 3.16375C101.961 3.23609 99.7687 3.07074 97.5242 2.41971C96.689 2.1717 95.2274 1.85135 94.2878 1.69634C92.8785 1.45866 92.2521 1.42766 90.373 1.46899C85.3097 1.58266 75.653 2.70906 60.2545 4.99285C50.5456 6.42925 45.8999 6.94594 43.1856 6.89427C41.6196 6.86327 41.4108 6.82194 41.2542 6.53259C41.1498 6.35691 41.463 5.87122 41.8806 5.44753C43.1334 4.2178 43.3944 3.38076 42.7158 2.75039C41.202 1.30365 36.0866 1.27265 24.3419 2.63672C14.2154 3.81478 3.56697 5.69555 1.06144 6.7496C0.278464 7.05962 -0.0869251 7.3903 0.0174718 7.62798L0.174069 8L0.904844 7.53498C2.3664 6.54292 13.6935 4.7655 26.5343 3.5151C34.364 2.75039 36.8696 2.58505 37.5482 2.79173C38.2789 3.01907 38.1223 4.06279 37.1306 5.37519C36.2954 6.52225 36.2954 6.5946 37.1828 7.05962C38.4355 7.70032 39.8971 7.88633 43.3944 7.82432C48.6664 7.74165 54.4605 7.05962 71.2684 4.56915C83.9526 2.68839 87.6587 2.27504 90.373 2.40938C91.2603 2.45071 92.5653 2.70906 94.1835 3.14308C97.0022 3.92845 98.3071 4.0938 102.953 4.2178C110.156 4.42448 116.785 4.06279 130.931 2.72972C149.566 0.962632 152.541 0.776624 154.107 1.25198C154.525 1.38632 155.256 1.78934 155.725 2.15103C157.5 3.5151 161.154 4.56916 166.009 5.07552C167.992 5.28219 168.932 5.3132 174.256 5.30286C181.094 5.29253 184.591 5.12718 198.789 4.07313C211.108 3.15341 228.96 1.97535 243.262 1.12797C250.361 0.71462 256.103 0.352933 255.999 0.332265C255.738 0.280596 233.919 1.09697 225.463 1.48966C214.188 2.00635 206.514 2.45071 193.465 3.32909C177.91 4.38314 171.489 4.55882 167.052 4.02146C164.965 3.76311 163.607 3.33942 162.198 2.47138C160.632 1.52066 158.231 0.652616 156.143 0.301265C153.794 -0.11209 151.811 -0.101754 145.547 0.342603Z" fill="#F6F6F6"/>
</svg>
