<svg width="528" height="45" viewBox="0 0 528 45" fill="none" xmlns="http://www.w3.org/2000/svg">
<path fill-rule="evenodd" clip-rule="evenodd" d="M459.029 4.65587C448.773 4.96017 438.827 5.25527 429.86 5.25527H140.419C140.419 5.25527 140.419 5.25402 140.419 5.25156C140.419 5.18965 140.418 4.36068 140.419 3.25848C140.419 2.64973 140.419 1.95764 140.419 1.26539C140.419 1.26416 140.419 1.26292 140.419 1.26168H429.86C438.738 1.26168 448.496 0.971804 458.673 0.669497C464.381 0.499917 470.221 0.326425 476.112 0.197994C492.408 -0.157297 508.974 -0.162379 523.573 1.27789C524.113 1.33119 524.599 1.39095 524.997 1.4635C525.191 1.49887 525.436 1.55009 525.684 1.62729L525.693 1.63001C525.842 1.67633 526.449 1.86427 526.915 2.32937C527.211 2.62436 527.516 3.10107 527.467 3.70877C527.42 4.29499 527.065 4.71138 526.8 4.9425C526.353 5.33108 525.82 5.49549 525.677 5.53989L525.672 5.54145C525.262 5.66807 524.8 5.74116 524.461 5.78823C523.018 5.98921 520.316 6.1626 517.303 6.32208C514.931 6.44766 512.303 6.56779 509.734 6.68519C505.56 6.87593 501.544 7.05945 499.044 7.24741C472.357 9.2543 445.666 10.9884 418.952 12.4573C418.963 12.5267 418.97 12.5986 418.972 12.6732C418.991 13.4935 418.391 14.008 418.158 14.1828C417.888 14.3853 417.616 14.5051 417.477 14.5623C416.979 14.7671 416.318 14.9042 415.774 15.0073C415.13 15.1293 414.273 15.2684 413.175 15.4285C389.919 18.8205 366.355 21.3963 342.972 23.9522C339.929 24.2849 336.888 24.6172 333.852 24.951C324.324 25.9984 308.287 27.3367 292.42 28.6608C286.096 29.1885 279.8 29.7139 273.953 30.2178C278.816 30.2064 283.681 30.1804 288.552 30.1544C295.065 30.1196 301.586 30.0848 308.123 30.0848H369.512C370.766 30.0848 372.029 30.0818 373.296 30.0787C375.85 30.0726 378.422 30.0665 380.981 30.0849C381.122 30.0859 381.269 30.0884 381.402 30.0947C381.465 30.0977 381.567 30.1034 381.682 30.116C381.739 30.1221 381.836 30.1338 381.952 30.1554C382.028 30.1696 382.3 30.2202 382.608 30.3506L382.611 30.3519C382.732 30.403 384.061 30.9646 383.95 32.2382C383.899 32.8221 383.539 33.2238 383.305 33.4274C383.072 33.6305 382.838 33.7514 382.714 33.8097C382.467 33.9265 382.25 33.9845 382.177 34.0035C382.077 34.0298 381.992 34.047 381.94 34.0569C381.76 34.0908 381.585 34.1098 381.5 34.1187C381.101 34.1608 380.402 34.2079 379.668 34.2519C378.151 34.3427 376.126 34.4408 375.091 34.4767C341.316 35.6483 307.574 37.1108 273.813 38.6784C260.261 39.3078 246.709 39.9361 233.157 40.5645C229.985 40.7116 226.812 40.8587 223.64 41.0059C240.29 41.0027 256.941 40.9763 273.595 40.9498C291.344 40.9216 309.095 40.8934 326.852 40.8934C328.285 40.8934 329.447 41.7874 329.447 42.8902C329.447 43.993 328.285 44.887 326.852 44.887C309.119 44.887 291.378 44.9152 273.635 44.9434C238.135 44.9997 202.621 45.0561 167.122 44.887C165.94 44.8814 164.715 44.893 163.463 44.9048C160.093 44.9368 156.526 44.9706 153.065 44.6747C152.925 44.6627 152.712 44.6411 152.485 44.5957C152.375 44.5736 152.177 44.5295 151.951 44.4455C151.789 44.3853 151.25 44.1764 150.856 43.6941C150.63 43.4179 150.458 43.0557 150.454 42.6347C150.451 42.2211 150.612 41.879 150.792 41.6334C151.109 41.2002 151.547 40.9788 151.684 40.9112C152.011 40.7508 152.327 40.6744 152.424 40.6509L152.425 40.6505C152.888 40.5383 153.56 40.4565 154.073 40.3993C155.24 40.2693 156.775 40.1464 157.573 40.0988C163.949 39.7183 170.351 39.4411 176.721 39.1652C179.508 39.0445 182.29 38.9241 185.06 38.7954C200.995 38.055 216.931 37.3161 232.867 36.5772C246.412 35.9491 259.957 35.321 273.501 34.6921C277.296 34.5158 281.092 34.3409 284.888 34.1676C273.112 34.228 261.306 34.2665 249.542 34.0779C247.756 34.0493 246.358 33.9998 245.337 33.9267C244.832 33.8904 244.364 33.8447 243.965 33.7824C243.765 33.7512 243.538 33.7092 243.309 33.6493C243.114 33.5982 242.746 33.4912 242.38 33.2773C242.026 33.0708 241.266 32.5103 241.29 31.5684C241.312 30.7036 241.993 30.1875 242.241 30.0204C242.75 29.6776 243.367 29.5134 243.616 29.4475C244.306 29.2656 245.279 29.098 246.378 28.9378C250.85 28.2862 259.704 27.442 270.176 26.5266C276.973 25.9325 284.481 25.306 292.002 24.6785C307.811 23.3593 323.678 22.0352 333.118 20.9975C336.159 20.6633 339.201 20.3307 342.244 19.9981C356.131 18.48 370.033 16.9603 383.877 15.2702C361.931 15.8299 339.985 16.4781 318.039 17.1725C318.171 17.9424 317.985 18.8357 317.514 19.2714C317.209 19.4278 316.738 19.5889 316.593 19.622C316.515 19.6371 316.388 19.6574 316.338 19.664C316.248 19.6753 316.175 19.6806 316.148 19.6826C316.083 19.6873 316.025 19.6898 315.992 19.6911C315.859 19.6964 315.652 19.7008 315.412 19.7049C314.909 19.7136 314.104 19.7234 313.044 19.7343C309.581 19.7702 303.295 19.8193 295.576 19.8797C293.83 19.8933 292.011 19.9075 290.135 19.9223C269.771 20.0826 242.654 20.3077 229.111 20.5669C222.023 20.7026 207.903 21.0123 197.202 21.247L196.931 21.2529C191.567 21.3706 187.094 21.4687 184.856 21.5151C184.297 21.5267 183.874 21.5352 183.61 21.5399C183.483 21.5422 183.378 21.5439 183.314 21.5445C183.298 21.5446 183.272 21.5448 183.244 21.5447C183.233 21.5446 183.202 21.5445 183.165 21.5435C183.144 21.5429 183.089 21.5408 183.055 21.539C182.989 21.5345 182.739 21.5057 182.557 21.4724C181.925 21.1648 181.545 20.4304 181.487 19.6668H55.4028C47.4275 19.6681 39.4525 19.6677 31.4778 19.6672C27.4915 19.667 23.5052 19.6668 19.5191 19.6668H0.00092795C0.000926985 19.6651 0.000826329 19.6634 0.000825366 19.6617C0.000118404 19.5899 -0.000134673 18.7647 6.71866e-05 17.67C-0.000134673 16.5753 0.000118404 15.7501 0.000825366 15.6783C0.000826329 15.6766 0.000827293 15.6749 0.000828258 15.6732H55.2862C145.959 15.6588 236.571 15.4253 327.132 12.4725C381.097 10.7129 434.869 7.91183 488.616 4.0064C484.521 4.03305 480.391 4.0999 476.259 4.18999C470.496 4.31563 464.715 4.48717 459.029 4.65587ZM183.41 21.5401C183.409 21.5401 183.41 21.5401 183.41 21.5401V21.5401ZM245.203 33.254C245.201 33.2539 245.215 33.2489 245.247 33.2397C245.22 33.2494 245.204 33.254 245.203 33.254Z" fill="#E38895"/>
</svg>
