<svg width="254" height="213" viewBox="0 0 254 213" fill="none" xmlns="http://www.w3.org/2000/svg">
<path d="M224 87.5C224 135.053 174.328 174 112.5 174C50.6718 174 1 135.053 1 87.5C1 39.9467 50.6718 1 112.5 1C174.328 1 224 39.9467 224 87.5Z" stroke="#E38895" stroke-width="2"/>
<path d="M229.962 66.3099C236.434 80.0398 231.035 97.8523 216.919 115.595C202.814 133.323 180.055 150.912 151.98 164.144C123.906 177.375 95.855 183.735 73.2035 183.331C50.5342 182.926 33.3591 175.753 26.8879 162.023C20.4168 148.293 25.8158 130.481 39.9318 112.738C54.0368 95.0094 76.7959 77.4212 104.87 64.1893C132.944 50.9574 160.995 44.5977 183.647 45.0023C206.316 45.4072 223.491 52.58 229.962 66.3099Z" stroke="#8B8B8B" stroke-width="0.5"/>
</svg>
