<svg width="225" height="201" viewBox="0 0 225 201" fill="none" xmlns="http://www.w3.org/2000/svg">
<path d="M157.6 44.9094C171.842 50.309 181.872 62.801 186.56 78.665C191.248 94.5292 190.587 113.751 183.454 132.567C176.32 151.382 164.071 166.21 150.043 174.979C136.016 183.747 120.226 186.45 105.984 181.05C91.7422 175.651 81.7124 163.159 77.0245 147.295C72.3366 131.43 72.9969 112.208 80.1305 93.3929C87.2642 74.5776 99.5137 59.7493 113.541 50.9807C127.568 42.2123 143.359 39.5098 157.6 44.9094Z" stroke="#8B8B8B" stroke-width="0.5"/>
<path d="M224 87.5C224 135.053 174.328 174 112.5 174C50.6718 174 1 135.053 1 87.5C1 39.9467 50.6718 1 112.5 1C174.328 1 224 39.9467 224 87.5Z" stroke="#FCE362" stroke-width="2"/>
</svg>
