<svg width="49" height="49" viewBox="0 0 49 49" fill="none" xmlns="http://www.w3.org/2000/svg">
<g id="telegram">
<path id="bg" d="M0 24.2373C0 37.6231 10.8514 48.4745 24.2373 48.4745C37.6231 48.4745 48.4745 37.6231 48.4745 24.2373C48.4745 10.8514 37.6231 0 24.2373 0C10.8514 0 0 10.8514 0 24.2373Z" fill="#0088CC"/>
<path id="telegram_2" d="M12.2697 23.7953C18.7758 20.9607 23.1143 19.092 25.285 18.1891C31.4829 15.6112 32.7708 15.1633 33.6102 15.1484C33.7948 15.1453 34.2076 15.1911 34.475 15.408C34.7008 15.5912 34.7629 15.8387 34.7927 16.0124C34.8224 16.1861 34.8594 16.5818 34.83 16.891C34.4941 20.42 33.0408 28.9839 32.3015 32.9365C31.9886 34.6089 31.3726 35.1697 30.7763 35.2246C29.4802 35.3438 28.4961 34.368 27.2408 33.5452C25.2765 32.2576 24.1668 31.4561 22.2602 30.1996C20.0567 28.7475 21.4851 27.9495 22.7409 26.6452C23.0695 26.3038 28.7799 21.1098 28.8904 20.6386C28.9042 20.5797 28.9171 20.36 28.7866 20.244C28.6561 20.1281 28.4635 20.1677 28.3245 20.1993C28.1275 20.244 24.9895 22.318 18.9107 26.4214C18.02 27.0331 17.2132 27.3311 16.4904 27.3155C15.6935 27.2982 14.1607 26.8649 13.0212 26.4945C11.6235 26.0402 10.5127 25.8 10.6094 25.0284C10.6598 24.6265 11.2132 24.2155 12.2697 23.7953Z" fill="#F6F6F6"/>
</g>
</svg>
