<?xml version="1.0" encoding="utf-8"?>
<!-- Generator: Adobe Illustrator 26.0.1, SVG Export Plug-In . SVG Version: 6.00 Build 0)  -->
<svg version="1.1" id="Layer_1" xmlns="http://www.w3.org/2000/svg" xmlns:xlink="http://www.w3.org/1999/xlink" x="0px" y="0px"
	 viewBox="0 0 30 30" style="enable-background:new 0 0 30 30;" xml:space="preserve">
<style type="text/css">
	.st0{fill:#F6F6F6;}
</style>
<path class="st0" d="M2.8,14.3c6.5-2.8,10.8-4.7,13-5.6c6.2-2.6,7.5-3,8.3-3c0.2,0,0.6,0,0.9,0.3c0.2,0.2,0.3,0.4,0.3,0.6
	c0,0.2,0.1,0.6,0,0.9c-0.3,3.5-1.8,12.1-2.5,16c-0.3,1.7-0.9,2.2-1.5,2.3C20,25.8,19,24.9,17.7,24c-2-1.3-3.1-2.1-5-3.3
	c-2.2-1.5-0.8-2.3,0.5-3.6c0.3-0.3,6-5.5,6.1-6c0-0.1,0-0.3-0.1-0.4c-0.1-0.1-0.3-0.1-0.5,0c-0.2,0-3.3,2.1-9.4,6.2
	c-0.9,0.6-1.7,0.9-2.4,0.9c-0.8,0-2.3-0.5-3.5-0.8c-1.4-0.5-2.5-0.7-2.4-1.5C1.2,15.1,1.7,14.7,2.8,14.3z"/>
</svg>
