<?xml version="1.0" encoding="utf-8"?>
<!-- Generator: Adobe Illustrator 26.0.1, SVG Export Plug-In . SVG Version: 6.00 Build 0)  -->
<svg version="1.1" id="Layer_1" xmlns="http://www.w3.org/2000/svg" xmlns:xlink="http://www.w3.org/1999/xlink" x="0px" y="0px"
	 viewBox="0 0 30 30" style="enable-background:new 0 0 30 30;" xml:space="preserve">
<style type="text/css">
	.st0{fill:#F6F6F6;}
</style>
<path class="st0" d="M26.5,9.1C26.2,8,25.5,7.3,24.4,7c-1.8-0.5-9.5-0.5-9.5-0.5S7.3,6.5,5.3,7C4.2,7.3,3.5,8,3.2,9.1
	c-0.3,2-0.3,5.9-0.3,5.9s0,3.9,0.5,5.9C3.6,22,4.4,22.7,5.5,23c1.8,0.5,9.5,0.5,9.5,0.5s7.6,0,9.5-0.5c1.1-0.3,1.8-1.1,2.1-2.1
	c0.5-2,0.5-5.9,0.5-5.9S27.1,11.1,26.5,9.1z M12.6,18.6v-7.3l6.4,3.6L12.6,18.6z"/>
</svg>
